<svg width="64" height="64" viewBox="0 0 64 64" fill="none" xmlns="http://www.w3.org/2000/svg">
  <rect width="64" height="64" rx="14" fill="#1E1E28"/>
  <path d="M24 15.5V38.5C24 42.0899 21.0899 45 17.5 45C13.9101 45 11 42.0899 11 38.5C11 34.9101 13.9101 32 17.5 32C18.9624 32 20.3121 32.4828 21.3984 33.2982V20.0944L39.5 16V31C39.5 34.5899 36.5899 37.5 33 37.5C29.4101 37.5 26.5 34.5899 26.5 31C26.5 27.4101 29.4101 24.5 33 24.5C34.4624 24.5 35.8121 24.9828 36.8984 25.7982V13L24 15.5Z" fill="url(#paint0_linear_203_12)"/>
  <defs>
    <linearGradient id="paint0_linear_203_12" x1="11" y1="13" x2="43.5" y2="45" gradientUnits="userSpaceOnUse">
      <stop stop-color="#FF4FD8"/>
      <stop offset="1" stop-color="#7C6CFF"/>
    </linearGradient>
  </defs>
</svg>
